# Blender v2.71 (sub 0) OBJ File: ''
# www.blender.org
v -1.000000 1.000000 -1.000000
v -1.000000 -1.000000 1.000000
v -1.000000 -1.000000 -1.000000
v 1.000000 1.000000 -1.000000
v 1.000000 -1.000000 -1.000000
v 1.000000 1.000000 1.000000
v 1.000000 -1.000000 1.000000
v -1.000000 1.000000 1.000000
vt 0.000087 0.333404
vt 0.250043 0.666640
vt 0.250043 0.333404
vt 0.500000 0.000016
vt 0.500000 0.333404
vt 0.749956 0.666641
vt 0.499999 0.666640
vt 0.250042 0.999876
vt 0.999913 0.666641
vt 0.999913 0.333405
vt 0.749956 0.333404
vt 0.000087 0.666639
vt 0.250042 0.000016
vt 0.499999 0.999876
vn 1.000000 0.000000 0.000000
vn 0.000000 -0.000000 1.000000
vn -1.000000 0.000000 0.000000
vn 0.000000 0.000000 -1.000000
vn 0.000000 1.000000 0.000000
vn 0.000000 -1.000000 -0.000000
s off
f 1/1/1 2/2/1 3/3/1
f 4/4/2 3/3/2 5/5/2
f 6/6/3 5/5/3 7/7/3
f 8/8/4 7/7/4 2/2/4
f 3/3/5 7/7/5 5/5/5
f 8/9/6 1/10/6 4/11/6
f 2/2/1 1/1/1 8/12/1
f 1/13/2 3/3/2 4/4/2
f 4/11/3 5/5/3 6/6/3
f 6/14/4 7/7/4 8/8/4
f 2/2/5 7/7/5 3/3/5
f 6/6/6 8/9/6 4/11/6
